# xmcd
#
# Track frame offsets:
#	150
#	14429
#	27562
#	41257
#	54848
#	68554
#	82245
#	95216
#	108772
#	120883
#	133749
#	147901
#	162078
#	176858
#	189898
#	204304
#	218377
#	232448
#	246428
#	259055
#	272206
#	285377
#	297331
#	310248
#	323525
#
# Disc length: 4499 seconds
# Revision: 0
# Processed by: cddbd v1.5.2PL0 Copyright (c) Steve Scherf et al.
# Submitted via: dBpowerAMP V12.0
#
DISCID=6a119119
DTITLE=Charley Patton - The Essential Collection
DYEAR=2013
DGENRE=Blues
TTITLE0=Some Happy Day
TTITLE1=You're Gonna Need Somebody When You Die
TTITLE2=Jim Lee Blues Pt. 1
TTITLE3=Jim Lee Blues Pt. 2
TTITLE4=High Water Everywhere Pt. 1
TTITLE5=High Water Everywhere Pt. 2
TTITLE6=Jesus Is A Dying Bed Maker
TTITLE7=I Shall Not Be Moved
TTITLE8=Rattlesnake Blues
TTITLE9=Running Wild Horses
TTITLE10=Joe Kirby
TTITLE11=Mean Black Moan
TTITLE12=Dry Well Blues
TTITLE13=Some Sumer Day Pt. 1
TTITLE14=Moon Going Down
TTITLE15=Bird Nest Bound
TTITLE16=Jersey Bull Blues
TTITLE17=High Sheriff Blues
TTITLE18=Stone Pony Blues
TTITLE19=34 Blues
TTITLE20=LoveMy Stuff
TTITLE21=Revenue Man Blues
TTITLE22=Oh Death!
TTITLE23=Troubled 'Bout My Mother
TTITLE24=Poor Me
EXTD=
EXTT0=
EXTT1=
EXTT2=
EXTT3=
EXTT4=
EXTT5=
EXTT6=
EXTT7=
EXTT8=
EXTT9=
EXTT10=
EXTT11=
EXTT12=
EXTT13=
EXTT14=
EXTT15=
EXTT16=
EXTT17=
EXTT18=
EXTT19=
EXTT20=
EXTT21=
EXTT22=
EXTT23=
EXTT24=
PLAYORDER=
